<svg xmlns="http://www.w3.org/2000/svg" xmlns:xlink="http://www.w3.org/1999/xlink" viewBox="0 0 23.81 21.84"><defs><style>.cls-1{fill:none;}.cls-2{clip-path:url(#clip-path);}.cls-3{fill:#fff;}</style><clipPath id="clip-path" transform="translate(-0.1 -2.12)"><rect class="cls-1" width="24" height="24"/></clipPath></defs><g id="Слой_2" data-name="Слой 2"><g id="_4_экран_1_макет_" data-name="4 экран (1 макет)"><g id="иконки"><g class="cls-2"><path class="cls-3" d="M23.8,12.49A11.9,11.9,0,0,0,.1,14a11.75,11.75,0,0,0,3.72,8.65A4.83,4.83,0,0,0,7.15,24h9.69a4.93,4.93,0,0,0,3.48-1.41A11.89,11.89,0,0,0,23.8,12.49Zm-4.87,8.63a3,3,0,0,1-2.09.86H7.15a2.84,2.84,0,0,1-2-.74A9.81,9.81,0,0,1,2.08,14,9.93,9.93,0,0,1,5.39,6.65,9.79,9.79,0,0,1,12,4.13a11.46,11.46,0,0,1,1.17.06,9.91,9.91,0,0,1,5.78,16.94ZM7.84,18.3a1,1,0,1,1-1.39,1.41A7.93,7.93,0,0,1,12,6.11a8.47,8.47,0,0,1,1.13.08A1,1,0,0,1,14,7.31h0a1,1,0,0,1-1.1.85h0a6,6,0,0,0-5,10.14Zm12-5.39A7.24,7.24,0,0,1,19.93,14a7.81,7.81,0,0,1-2.39,5.67,1,1,0,0,1-1.4,0,1,1,0,0,1,0-1.41,5.93,5.93,0,0,0,1.73-5.1,1,1,0,1,1,2-.28Zm-5.94.63a2,2,0,1,1-2.48-1.41,2.19,2.19,0,0,1,1.08,0l3.75-3.75a1,1,0,1,1,1.42,1.38l0,0Z" transform="translate(-0.1 -2.12)"/></g></g></g></g></svg>