<svg xmlns="http://www.w3.org/2000/svg" xmlns:xlink="http://www.w3.org/1999/xlink" viewBox="0 0 19.76 23.71"><defs><style>.cls-1{fill:none;}.cls-2{clip-path:url(#clip-path);}.cls-3{fill:#fff;}</style><clipPath id="clip-path" transform="translate(-2.12 -0.15)"><rect class="cls-1" width="24" height="24"/></clipPath></defs><g id="Слой_2" data-name="Слой 2"><g id="_4_экран_1_макет_" data-name="4 экран (1 макет)"><g id="иконки"><g class="cls-2"><path class="cls-3" d="M18.5,2.26,12.31.2a.94.94,0,0,0-.62,0L5.5,2.26A4.94,4.94,0,0,0,2.12,7V12c0,7.47,9.09,11.6,9.48,11.77a1,1,0,0,0,.8,0c.39-.17,9.48-4.3,9.48-11.77V7A4.94,4.94,0,0,0,18.5,2.26ZM19.9,12c0,5.39-6.24,8.92-7.9,9.77C10.34,20.93,4.1,17.4,4.1,12V7a3,3,0,0,1,2-2.82l5.88-2,5.88,2A3,3,0,0,1,19.9,7Z" transform="translate(-2.12 -0.15)"/><path class="cls-3" d="M15.26,8.34l-4.14,4.15L8.91,10.18a1,1,0,0,0-1.46,1.34l0,0,2.28,2.37a1.86,1.86,0,0,0,1.33.6h0A1.86,1.86,0,0,0,12.44,14l4.22-4.22a1,1,0,0,0-1.4-1.41Z" transform="translate(-2.12 -0.15)"/></g></g></g></g></svg>