<svg xmlns="http://www.w3.org/2000/svg" viewBox="0 0 24 24"><defs><style>.cls-1{fill:#fff;}</style></defs><g id="Слой_2" data-name="Слой 2"><g id="_4_экран_1_макет_" data-name="4 экран (1 макет)"><g id="иконки"><path class="cls-1" d="M12,0A12,12,0,1,0,24,12,12,12,0,0,0,12,0ZM22,12a10,10,0,0,1-1.66,5.51l-1.19-1.2A.47.47,0,0,1,19,16V15a3,3,0,0,0-3-3H13a1,1,0,0,1-1-1v-.5a.5.5,0,0,1,.5-.5A2.5,2.5,0,0,0,15,7.5v-1a.5.5,0,0,1,.5-.5h1.38a2.51,2.51,0,0,0,1.77-.73L19,4.89A10,10,0,0,1,22,12ZM2.05,13l3.16,3.16A3,3,0,0,0,7.33,17H10a1,1,0,0,1,1,1V22a10,10,0,0,1-8.95-9Zm11,9V18a3,3,0,0,0-3-3H7.33a1,1,0,0,1-.71-.29L2.16,10.25a10,10,0,0,1,11.56-8.1,10.18,10.18,0,0,1,3.74,1.48l-.23.22a.47.47,0,0,1-.35.15H15.5A2.5,2.5,0,0,0,13,6.5v1a.5.5,0,0,1-.5.5A2.5,2.5,0,0,0,10,10.5V11a3,3,0,0,0,3,3h3a1,1,0,0,1,1,1v1a2.51,2.51,0,0,0,.73,1.77l1.34,1.34A10,10,0,0,1,13,22Z"/></g></g></g></svg>