<svg xmlns="http://www.w3.org/2000/svg" xmlns:xlink="http://www.w3.org/1999/xlink" viewBox="0 0 34.8 35"><defs><style>.cls-1{fill:none;}.cls-2{clip-path:url(#clip-path);}.cls-3{fill:#999;}</style><clipPath id="clip-path" transform="translate(-0.1 0)"><rect class="cls-1" width="35" height="35"/></clipPath></defs><g id="Слой_2" data-name="Слой 2"><g id="_2_экран" data-name="2 экран"><g id="инструкция"><g class="cls-2"><path class="cls-3" d="M14.17,16.88a4.64,4.64,0,0,0,6.66,0l6.55-6.71a1.9,1.9,0,0,0,0-2.64,1.83,1.83,0,0,0-2.65,0l-5.43,5.56V1.87a1.84,1.84,0,1,0-3.68,0V13.09L10.23,7.53a1.88,1.88,0,0,0-2.61,0,1.92,1.92,0,0,0,0,2.69Z" transform="translate(-0.1 0)"/><path class="cls-3" d="M31.42,26.39a5.2,5.2,0,0,1-5.22,5.17H8.8a5.2,5.2,0,0,1-5.22-5.17v-1a1.72,1.72,0,0,0-1.72-1.72h0A1.72,1.72,0,0,0,.1,25.43v1A8.67,8.67,0,0,0,8.8,35H26.2a8.67,8.67,0,0,0,8.7-8.61v-1a1.72,1.72,0,0,0-1.72-1.72h0a1.72,1.72,0,0,0-1.72,1.72Z" transform="translate(-0.1 0)"/></g></g></g></g></svg>