<svg xmlns="http://www.w3.org/2000/svg" viewBox="0 0 675.42 361.1"><defs><style>.cls-1{isolation:isolate;}.cls-2{fill:#e9f4fd;}.cls-11,.cls-13,.cls-14,.cls-23,.cls-3,.cls-4,.cls-7{fill:none;}.cls-3,.cls-4,.cls-7{stroke:#d7e6f7;}.cls-11,.cls-13,.cls-23,.cls-3,.cls-4{stroke-miterlimit:10;}.cls-4{stroke-dasharray:4 4;}.cls-5{fill:#f2f9ff;}.cls-6{fill:#bfdbf5;}.cls-14,.cls-7{stroke-linecap:round;stroke-linejoin:round;}.cls-8{fill:#303b77;}.cls-9{fill:#ebaf88;}.cls-10{fill:#00356a;}.cls-11{stroke:#3761a1;}.cls-11,.cls-13,.cls-23{stroke-width:0.5px;}.cls-12{fill:#008dff;}.cls-13{stroke:#a0bfef;}.cls-14{stroke:#c2e6fb;stroke-width:5px;}.cls-15,.cls-17{fill:#e8ab3b;}.cls-16{fill:#d58229;}.cls-17{opacity:0.5;mix-blend-mode:multiply;}.cls-18{fill:#f0c64e;}.cls-19{fill:#3761a1;}.cls-20{fill:#d89269;}.cls-21{fill:#e2e6eb;}.cls-22{fill:#3d59a8;}.cls-23{stroke:#82aeeb;}.cls-24{font-size:25.34px;fill:#ffffeb;font-family:MullerExtraBoldDEMO, Muller;}.cls-25{letter-spacing:-0.08em;}.cls-26{letter-spacing:0em;}.cls-27{letter-spacing:0em;}</style></defs><g class="cls-1"><g id="Слой_2" data-name="Слой 2"><g id="_404_eror" data-name="404 eror"><g id="иллюстрация"><path class="cls-2" d="M636.19,329.85c-4-7.67-20.38-13.84-27.7-15.24-39.06-7.46-80-6.41-119.56-6.29-43.1.14-84.22,7-127,10.23-22.23,1.65-45.72-1.33-68-2.1q-55-1.9-110-4.48c-31.62-1.47-64.43,1.84-92.32,19.27-3.17,2-6.38,4.37-7.82,7.93-9.06,22.34,103.85,19.53,118.56,19.91C276.57,361,350.82,362,425,360c55.18-1.49,112.69-1.4,167.41-9.19,12.1-1.72,28.57-2.34,39-9.46C637.25,337.41,638.08,333.47,636.19,329.85Z"/><path class="cls-3" d="M588.16,25l2,0"/><path class="cls-4" d="M594.15,25.25c19.69,1.39,45.84,9.47,43,27-4.38,26.53-122.31,16.75-150.47,17C430,69.81,372.74,70,317.21,82.41c-13.51,3-32.85,9.65-31.38,26.88.51,6,4.06,11.47,8.57,15.54,16.22,14.65,38.82,16,59.8,18.62,31.73,3.89,182.66-1.29,232,14.89,9.72,3.18,21.86,7.29,22.26,21.17,1,35.29-86.62,33.55-112.9,34.22-70.17,1.79-140.42,1.08-210.59-.3-56.71-1.12-113.59-2.11-170.21-5.77C93.65,206.3,59.13,205.89,43,190c-9-8.86-10.18-25,4.05-33.19,10-5.8,39.45-3.26,50.77-4.24,35-3,23.38-24.69-5.83-26.53"/><path class="cls-3" d="M90,126c-.66,0-1.32,0-2,0"/><path class="cls-5" d="M590.17,50.84l-9-47.76A3.77,3.77,0,0,0,575,.92l-36.84,31.7A3.77,3.77,0,0,0,539.33,39L585.21,55.1A3.78,3.78,0,0,0,590.17,50.84Z"/><path class="cls-6" d="M583.21,50.11a2.36,2.36,0,0,1-.78-.13L544.7,36.77A2.32,2.32,0,0,1,543.17,35a2.36,2.36,0,0,1,.77-2.22L574.25,6.71a2.34,2.34,0,0,1,3.83,1.34l7.43,39.28a2.34,2.34,0,0,1-.77,2.21A2.36,2.36,0,0,1,583.21,50.11ZM546.72,34.32,582.38,46.8l-7-37.12Z"/><path class="cls-6" d="M566.82,34.07h0a1.43,1.43,0,0,1-.89-1.74l3.75-13.13a2.21,2.21,0,0,1,2.86-1.45h0a2.21,2.21,0,0,1,1.32,2.92L568.6,33.26A1.41,1.41,0,0,1,566.82,34.07Z"/><path class="cls-6" d="M567.1,37.65a1.44,1.44,0,1,1-2.72-.95,1.44,1.44,0,0,1,2.72.95Z"/><path class="cls-5" d="M85.16,109.89,55.46,95.1a2.58,2.58,0,0,0-3.72,2.47l2,33.12a2.58,2.58,0,0,0,4,2l27.66-18.33A2.58,2.58,0,0,0,85.16,109.89Z"/><path class="cls-6" d="M81.9,113.38a1.67,1.67,0,0,1-.39.36L58.76,128.82a1.6,1.6,0,0,1-2.48-1.23l-1.69-27.24a1.61,1.61,0,0,1,2.31-1.54L81.34,111a1.61,1.61,0,0,1,.56,2.4ZM58.26,126.71l21.5-14.25L56.67,101Z"/><path class="cls-6" d="M66.42,115.67h0a1,1,0,0,1-1.32-.23L59.5,108a1.53,1.53,0,0,1,.39-2.16h0a1.51,1.51,0,0,1,2.14.49l4.68,8.05A1,1,0,0,1,66.42,115.67Z"/><path class="cls-6" d="M68.48,117a1,1,0,0,1-.28,1.37,1,1,0,1,1,.28-1.37Z"/><circle class="cls-3" cx="105.74" cy="174.21" r="2.47"/><circle class="cls-3" cx="472.94" cy="128.43" r="2.47"/><circle class="cls-3" cx="278.12" cy="59.11" r="2.47"/><circle class="cls-3" cx="275.15" cy="247.24" r="2.47"/><line class="cls-7" x1="332.8" y1="101.58" x2="332.8" y2="107.17"/><line class="cls-7" x1="335.6" y1="104.38" x2="330" y2="104.38"/><line class="cls-7" x1="433.25" y1="30.07" x2="433.25" y2="35.67"/><line class="cls-7" x1="436.05" y1="32.87" x2="430.45" y2="32.87"/><line class="cls-7" x1="588.65" y1="181.04" x2="588.65" y2="186.64"/><line class="cls-7" x1="591.45" y1="183.84" x2="585.85" y2="183.84"/><path class="cls-8" d="M383,341s-10.41,4.44-10.41,6.67c0,1.27,14.33-.55,15.19-1.42,1.38-1.38-.56-5.06-.56-5.06Z"/><path class="cls-9" d="M382.37,334.82l.67,6.4a2,2,0,0,0,1.81,1.15,3,3,0,0,0,2.41-1.15l-.51-8"/><path class="cls-10" d="M400.57,187.93c3.79,15.27,2.38,23-3.17,34.54-3.36,38.72-5.71,77.29-10.24,115l-4.79.27c-10.87-36.76-20.87-91.71-19.59-142"/><path class="cls-11" d="M398.21,193.17a29,29,0,0,1,1.61,11.31c-.19,5.8-2.54,11-4.07,16.53-2,7.33-2.19,14.63-2.74,22.14q-1.31,17.62-2.66,35.25-2.19,28.75-4.42,57.49c0,.57-.09,1.14-.13,1.71"/><path class="cls-8" d="M424.58,342.52s-10.42,4.44-10.41,6.67c0,1.27,14.32-.55,15.19-1.42,1.38-1.38-.56-5.06-.56-5.06Z"/><path class="cls-9" d="M423.91,336.31l.67,6.4a2,2,0,0,0,1.8,1.15,3,3,0,0,0,2.42-1.15l-.52-8"/><path class="cls-10" d="M435.21,186.64c4.79,15,3.9,22.81-.88,34.67-.79,38.86-3.46,79.44-5.48,117.41h-4.92c-13.28-36-27.51-91.48-29.56-141.69"/><path class="cls-11" d="M432.83,192.84s5.56,13-3.83,31.25c-1.08,17.23-1.64,114.63-1.64,114.63"/><path class="cls-11" d="M419.1,197a8.58,8.58,0,0,0,4.07,3.17,20.92,20.92,0,0,0,5.08,1.15,36.59,36.59,0,0,0,6.19.31"/><path class="cls-11" d="M419.78,199.39a14.12,14.12,0,0,0,6.36,3.14,33.8,33.8,0,0,0,7.11.67"/><path class="cls-9" d="M378.35,114.22c-16.57,28.83-34.4,54.94-45,86.46L330.22,199c.81-29.27,10.3-71.83,22.75-98.33"/><path class="cls-12" d="M370.25,84.12a43.48,43.48,0,0,0-11.15,5.44,38,38,0,0,0-12.88,15.54,70.35,70.35,0,0,0-5.55,19.6,52.35,52.35,0,0,0,14.89,4.46,78.86,78.86,0,0,0,16.4,0"/><path class="cls-12" d="M357.9,101.16c-1.76,31.17-.42,63.25.37,93.58,0,0,10.87,2.89,37.29,2.89s43.55-8,43.55-8c-5.1-31.17-9.16-69.42-21.64-95.08,0,0-14.09-15.19-28-15.82a18.16,18.16,0,0,0-8.25,2.14c-2,.91-11,3.11-11,3.11Z"/><path class="cls-13" d="M357.75,103.93c-.69,6-.69,24.5-.69,24.5"/><path class="cls-14" d="M384,204.55c44.13-4.89,62.64,51,72.69,72.74,23.76,51.29,113.38,45.57,154.22,45.57,53.49,0,77,18,52,27.48"/><path class="cls-15" d="M399.23,207.07c0,22.71-17.18,36.41-31.86,36.41H343.28V170.67h24.09C382.05,170.67,399.23,184.37,399.23,207.07Z"/><path class="cls-16" d="M386.82,207.07c0,22.19-13.14,40.17-29.34,40.17H330.9V166.91h26.58C373.68,166.91,386.82,184.89,386.82,207.07Z"/><path class="cls-17" d="M392.71,185.13q-8.62,11.75-16.79,23.82a4,4,0,0,0,2.05-1.08c0,.61-1,1.65-.11,2s1.75-.61,2.64-.34c.83-.19,1.61-1.24,2.22-1.84a4.57,4.57,0,0,0-.37,1.41c5.86-2.28,11.11-7.75,15.67-12.15A36.75,36.75,0,0,0,392.71,185.13Z"/><ellipse class="cls-18" cx="332.8" cy="207.07" rx="29.34" ry="40.17"/><path class="cls-16" d="M335.25,221.31c0,3.29-2.25,6-5,6s-5-2.68-5-6,2.26-6,5-6S335.25,218,335.25,221.31Z"/><path class="cls-16" d="M335.25,192.84c0,3.3-2.25,6-5,6s-5-2.67-5-6,2.26-6,5-6S335.25,189.54,335.25,192.84Z"/><path class="cls-9" d="M425.5,124.17s1.86,19-6.62,34.75c-7.26,13.49-21.67,31-33.31,40.57l-2.8-.68c4.05-15.55,16.84-43.16,17.64-53.51s.6-22.35.79-28.12"/><path class="cls-12" d="M389.48,78.71s15.61,1.07,24.67,8.72C427.08,98.36,429,119.75,429,124.72c-3.91,4.22-12.45,4.44-18.68,4.44a21.48,21.48,0,0,1-10.78-3l-1.27-23.6"/><path class="cls-9" d="M383.9,196.5a10,10,0,0,0-5,2.21c-1.37,1.07-3.05,2.85-2.87,3.67s2.42-.79,2.7-.46-3.84,6.54-3.07,7,4.27-5.16,4.27-5.16-3.39,6-2.08,6.14c1.1.11,4.11-5.58,4.11-5.58s-2.54,5.09-1.67,5.28,3.23-4.87,3.23-4.87-1.92,4.32-1.18,4.4c.37,0,2.27-2.12,3.06-4.72s1.7-4.8,1-6.8"/><line class="cls-13" x1="400.19" y1="105.06" x2="400.19" y2="126.56"/><path class="cls-8" d="M357.12,58.88c-.09.93-.12,1.87-.12,2.8a10.14,10.14,0,0,0,1.45,5.81,6.11,6.11,0,0,0,3.35,2.35c.95.26,2.19.15,2.6-.75a2.33,2.33,0,0,0,.15-1,27.28,27.28,0,0,0-2-10.14"/><path class="cls-9" d="M380.68,60.84c-1.34-5.23-5.55-12.54-12.41-11.07-4.3.92-8.27,3.85-9.54,8-1.51,4.9.94,10.61,3.88,14.61a12.13,12.13,0,0,0,4.05,3.75c4,2,9.32.37,12-3S381.74,65,380.68,60.84Z"/><path class="cls-9" d="M371.06,74.49l2.24,8.19-3.05,1.44a7.44,7.44,0,0,0,6.93,2.42c9.36-1.34,12.3-7.83,12.3-7.83l-5.28-.55-5.85-10"/><path class="cls-8" d="M385.24,55.14a13.11,13.11,0,0,0-6.33-8.53c-5.54-3.36-13.42-3.63-18.35,1-2.8,2.64-7.85,12-1.82,13.85,1.89.57,3.83-.57,5.47-1.67l5-3.34a4,4,0,0,1,2-.85,2.94,2.94,0,0,1,2.58,2.08,26.56,26.56,0,0,1,.73,3.46,3.29,3.29,0,0,0,1.25,2.09,1.54,1.54,0,0,0,2.17-.43,3.82,3.82,0,0,0,.06-1.72c0-.58.32-1.29.9-1.26a1,1,0,0,1,.56.24c1.45,1.13,1,3.41,1.47,5.19.06.23-.43,3.84-.27,4C385.28,68.19,385.71,57.71,385.24,55.14Z"/><path class="cls-9" d="M378.36,60.28a1.3,1.3,0,0,1,1.19-1.35,2.53,2.53,0,0,1,1.82.7,4,4,0,0,1,1.53,2.93,4.56,4.56,0,0,1-.83,2.51,2.75,2.75,0,0,1-1.34,1.18,2.14,2.14,0,0,1-2.1-.67"/><path class="cls-8" d="M212.43,340.8s10,1.68,10.32,3.88c.16,1.27-14.08,2.78-15.05,2-1.54-1.19.35-5.65.35-5.65Z"/><path class="cls-9" d="M211.63,334.64l.82,6.35a2,2,0,0,1-1.64,1.37,3,3,0,0,1-2.54-.83l-1.18-7.93"/><path class="cls-10" d="M174.07,189.89c-1.8,15.63-1.9,23.14,5.09,33.84,3.31,15.13,8.39,30.6,12.23,46.08-1.66,18.49,9.93,47.94,16.17,69l4.51-.77c6.05-37.85,8.29-95.9,2.86-146.72"/><path class="cls-11" d="M177,211.06s17.29,54.89,17.29,57.87.47,13.22,1.23,19.87c1.41,12.17,12.43,48,12.43,48"/><polygon class="cls-19" points="207.42 339.63 206.72 336.88 212.53 336.67 212.61 339.2 207.42 339.63"/><path class="cls-8" d="M134.28,341.11s7.87,5.68,7.17,7.68c-.4,1.15-13.19-3.59-13.7-4.63-.81-1.67,2.69-4.68,2.69-4.68Z"/><path class="cls-9" d="M136.21,335.52l-2,5.77a1.86,1.86,0,0,1-2,.47,2.89,2.89,0,0,1-1.82-1.78l2.35-7.26"/><path class="cls-10" d="M140.29,186.64c-4.79,15-3.9,22.81.88,34.67.29,14.19.43,28.55.6,42.92-10.12,25.31-11.72,48-10.44,72.13l4.88,1.81s29-50.61,34.38-70.62A331,331,0,0,0,181.13,197"/><path class="cls-11" d="M141.49,189.89s-5.28,15.46,1.65,30.36c0,4.16,2.38,38.74,1.44,44.09-.46,2.56-5.2,14.78-8.37,26.68-3.51,13.16-4.25,44.21-4.25,44.21"/><polygon class="cls-19" points="130.43 336.36 131.2 333.1 137.44 336 136.21 338.79 130.43 336.36"/><path class="cls-20" d="M221.51,70.92l-3.91-3.34V60.66c0-1.07-1.45-7.51-2.77-7.51s-1.61-1.61-2.26-1,.53,7.93,0,8.47-1.23-3.46-1.73-3-.54,3.43-.54,4.92a9.94,9.94,0,0,0,2.39,5.45c1.18,1.18,6.44,6.86,6.44,6.86Z"/><path class="cls-12" d="M219.55,68.7l-3.27,3.72s12.92,17.1,17,22.83c-3.73-1.31-9.08-4.58-12.18-6.61-6.08-4-12.17-6.1-16.39-6.1-8.94,0-4.26,29.49,6.12,33.81,19.69,3,41.76,1.09,45.14-5.83C261,100.26,232.13,76.09,219.55,68.7Z"/><path class="cls-13" d="M233.29,95.25s2.47,6.88,6.85,9.13"/><path class="cls-12" d="M159.51,90.34C136,116.71,136.39,162,136.39,192.85c0,0,17.24,11.76,43.55,11.76s37.29-6.49,37.29-6.49c.79-31.21-4.78-44.68.37-96.31,0,0-8.4-19.27-12.88-19.27s-22-1.73-22-1.73Z"/><path class="cls-13" d="M216.3,117s.54-9,2.73-11.2"/><path class="cls-9" d="M190.49,61c.87-5.31,4.66-12.91,11.62-12,4.37.54,7.76,3.55,10.2,7.09,2.1,3,1.31,5.93-1.68,13.6-.95,1.57-3,4.37-4.59,5.38-3.78,2.4-9.26,1.19-12.25-2A14.32,14.32,0,0,1,190.49,61Z"/><path class="cls-8" d="M191.42,60.4c1-.15,0-.8.45.11.28.58.37.75.93.94s.57.69,1,1c.72.54,1.34-.19,1.64-.82a7,7,0,0,0,.42-3.78c-.11-1-.44-2.54.52-3.22.79-.55,2.53.25,3.34.49,1.24.36,2.48.76,3.72,1.14,3,.91,6.17,1.72,9.32,1.29a9,9,0,0,0,6.92-4.36c1.59-3.06-1.58-7.06-4.8-7.07a12.32,12.32,0,0,0-2.47.51,1.84,1.84,0,0,1-.93,0c-.7-.21-1-1-1.41-1.62a5.29,5.29,0,0,0-5.34-2.19c-2.39.26-4.43,1.4-6.7,2a13.74,13.74,0,0,1-3.45.06,3.65,3.65,0,0,0-3.06,2c-1-1-3.15,1.48-3.69,2.14-2.38,2.89-3.13,7.06-3.2,10.72,0,3.2.48,7.86,4,9.15,1.48.54,2.42.83,2.48-.53-.65-1.41-.8-4.21-.94-5.38s.22-2.58,1.31-3"/><path class="cls-9" d="M202.85,73.75l-.77,8,2.64.75a7.42,7.42,0,0,1-6,4.22c-9.37,1.25-16-6-16-6l3.13-.6,4.73-14.93"/><path class="cls-9" d="M193,60.34a1.28,1.28,0,0,0-1.3-1.23,2.53,2.53,0,0,0-1.75.85c-2.62,2.61.67,9,3.26,5.68"/><path class="cls-8" d="M210.65,69.54c-.42,1-2.08,1.38-3,1.48-4.4.49-8.06-2.36-12.28-2.88a2.24,2.24,0,0,0-3.07,2.62,26.58,26.58,0,0,0,0,3,5.71,5.71,0,0,0,.68,2.44c1.9,3.17,8.26,3.71,11.49,3.51a6.74,6.74,0,0,0,3.67-1.1c1.45-1.09,1.77-3,2.31-4.69A9.28,9.28,0,0,0,210.65,69.54Z"/><path class="cls-9" d="M207.52,73a.82.82,0,0,0-.47-.17,43.71,43.71,0,0,1-4.8-.62,2.25,2.25,0,0,0-.82,0,1.69,1.69,0,0,0-1,1.34,1.14,1.14,0,0,0,.7,1.28,7.33,7.33,0,0,0,3.09.68,4.49,4.49,0,0,0,2.89-.52C207.52,74.68,208.17,73.47,207.52,73Z"/><path class="cls-14" d="M188.14,189.37c-51.28-2.69-81.14,23.78-102.34,72-27.52,62.56-66,67.55-83.3,67.21"/><path class="cls-15" d="M168.46,193.54c1.89,22.63,20.15,34.85,34.79,33.63l24-2-6.05-72.56-24,2C182.56,155.84,166.58,170.92,168.46,193.54Z"/><path class="cls-16" d="M180.83,192.51c1.85,22.11,16.43,38.93,32.58,37.59l26.48-2.21-6.67-80.06L206.73,150C190.58,151.39,179,170.4,180.83,192.51Z"/><ellipse class="cls-18" cx="234.66" cy="188.02" rx="29.34" ry="40.17" transform="translate(-14.82 20.16) rotate(-4.77)"/><path class="cls-15" d="M233.4,202.41c.28,3.28,2.74,5.76,5.51,5.53s4.79-3.08,4.52-6.37-2.74-5.76-5.51-5.53S233.13,199.12,233.4,202.41Z"/><path class="cls-15" d="M231,174c.27,3.28,2.74,5.76,5.51,5.53s4.79-3.08,4.51-6.37-2.74-5.76-5.51-5.53S230.76,170.75,231,174Z"/><path class="cls-21" d="M236.88,177.76l37.44-3.13a4.17,4.17,0,0,0,3.78-4.52h0a4.17,4.17,0,0,0-4.48-3.83l-37.44,3.12C233.32,169.64,233.87,178,236.88,177.76Z"/><path class="cls-21" d="M239.25,206.13,276.68,203a4.17,4.17,0,0,0,3.79-4.52h0a4.16,4.16,0,0,0-4.48-3.83l-37.44,3.12C235.69,198,236.23,206.38,239.25,206.13Z"/><path class="cls-9" d="M147,124.17s-1.87,19,6.62,34.75c7.25,13.49,21.66,31,33.31,40.57l2.79-.68c-4-15.55-16.84-43.16-17.63-53.51s-.61-22.35-.8-28.12"/><path class="cls-12" d="M182.73,80.81s-16.45,1-25.92,8.1c-16.36,12.36-13.15,45.54-8.38,61.77s27.67,40.57,35.07,45.82c1.21,0,4.78-.3,4.65-3.09-4.09-12.65-15.76-45.93-15.76-45.93l1.84-44.9"/><path class="cls-9" d="M188.6,196.5a9.93,9.93,0,0,1,5,2.21c1.37,1.07,3,2.85,2.88,3.67s-2.43-.79-2.7-.46,3.83,6.54,3.06,7-4.27-5.16-4.27-5.16,3.4,6,2.08,6.14c-1.1.11-4.11-5.58-4.11-5.58s2.55,5.09,1.67,5.28-3.23-4.87-3.23-4.87,1.92,4.32,1.18,4.4c-.37,0-2.27-2.12-3.06-4.72s-1.69-4.8-1-6.8"/><path class="cls-13" d="M177,160.7c-2.62-7.55-4.61-13.22-4.61-13.22l3.46-37.68"/><path class="cls-13" d="M144.67,119c-.09,10.22,1.14,22.81,3.76,31.73,2.29,7.81,8.79,17.5,15.73,26"/><path class="cls-9" d="M496.57,63.45l2.64-1.81s1.23-5.75,1.9-6.78,2.08-3.36,3.63-4.4c.64-.44,3.58-2.1,4.33-1.36.36.37-.88,3.7-1.45,4.27s-2.24,3.12-2,3.92,1.65-.95,2-1.28.78-.74.93-.31c.26.71-1.23,4.72-2.39,5.88a7.46,7.46,0,0,1-4.37,2.26l-4.1,3.63"/><path class="cls-8" d="M528.43,44.5c4.38,2.58,7.09,7.43,8.13,12.3a5.09,5.09,0,0,0,1,2.47,5.34,5.34,0,0,0,1.81,1.09A15,15,0,0,1,547,69.09c.54,1.61.12,3.88.75,5.25.77,1.68,3.63,2.06,5.17,2.57a11.71,11.71,0,0,1,.23,22.16,7.23,7.23,0,0,1,.83,6.07,14.08,14.08,0,0,1-3.21,5.41,29.89,29.89,0,0,1-23.45,9.67,21.83,21.83,0,0,1-7.37-1.47,29.55,29.55,0,0,1-7.18-4.6c-2.69-2.15-5.37-4.5-6.81-7.62s-1.36-7.2,1.1-9.62a7.44,7.44,0,0,1-7.45-3.36,10.87,10.87,0,0,1-1.25-8.35,20.78,20.78,0,0,1,3.86-7.7c1.22-1.63,2.62-3.28,2.88-5.29.43-3.37-1.45-6.37-1.94-9.72-.76-5.2-.52-9.67,3.93-12.44,1.43-3.71,3.16-6.57,7.27-7.66A18,18,0,0,1,528.43,44.5Z"/><path class="cls-12" d="M517.71,84.05c-14.86-3.89-31.88,2.26-35.67,2.24,5.2-5.19,14.73-16.75,18-20.75,0-2.74-1.66-3.51-1.66-3.51s-40.78,21.08-36.68,34.85c4.28,14.37,44.22,7.32,47.41,11.44"/><path class="cls-9" d="M520.63,217.85c0,1.22-5.37,27.4-5.76,30.21-1.14,8.17,3.18,16.38,2.76,29.06-.51,15.42-7.07,56.85-7.9,58.69s-4.83.15-4.83.15-11.53-55.58-12.18-78.33c-.53-18.73,2.19-59.28,2.19-59.28"/><path class="cls-8" d="M510.14,336.52a6.82,6.82,0,0,1,.63,2c-.08,1.73-.14,2.91-.14,2.91l-.75,0-.26-1.41a12,12,0,0,0-4,1.68c-1,.65-5.92.59-6.68.19a1,1,0,0,1-.33-1.59c.29-.33,5.63-2.67,5.63-2.67"/><path class="cls-9" d="M504.9,336c-.44,1.05-4.66,3.35-4.27,3.66s2.84.32,5.57-.59c2.48-.82,3.88-1.75,4-2.4l-.47-1.74"/><path class="cls-9" d="M557.62,218.94c0,1.22-4.53,27.54-4.84,30.36-.89,8.21,3.68,16.28,3.65,29,0,15.43-5.34,57-6.11,58.91s-4.83.3-4.83.3-13.21-55.21-14.55-77.93c-1.11-18.71.38-59.32.38-59.32"/><path class="cls-8" d="M550.75,337.87a6.78,6.78,0,0,1,.7,2c0,1.73-.05,2.91-.05,2.91l-.75.07-.31-1.4a11.88,11.88,0,0,0-4,1.8c-1,.68-5.91.77-6.68.39a1,1,0,0,1-.37-1.58c.27-.34,5.54-2.83,5.54-2.83"/><path class="cls-9" d="M545.49,337.48c-.4,1-4.55,3.48-4.15,3.78s2.85.24,5.55-.75c2.45-.9,3.83-1.87,3.89-2.52l-.53-1.74"/><path class="cls-22" d="M544.18,151.62s11.81,7.74,16.31,26.3c6.07,25-2.87,74-2.87,74A150.81,150.81,0,0,1,519,257.19c-20.12-.17-32-7-32.08-8.18s-3-38.32,1.09-63.5c4.59-28.25,16.28-35.87,16.28-35.87"/><path class="cls-12" d="M528.16,83.58c1.83-.68,6.58,1,15.48,4.39,3.91,4.23,5.62,13.49,6.46,21.69-2.31,20-4.88,30.86-3.64,37.59.29,1.6,1.76,2.8,1.52,5-.48,4.6-8,5.3-22.32,6.93s-27.19-4.88-26.42-6.91,3.22-3.81,3.6-5.15,1.56-18.44,0-20.47-5.54-7.87-5.54-13.56c0-8,4.41-11.59,7.29-16,4.81-7.33,8.46-11.93,13.11-13.08C525.16,82.21,528.16,83.58,528.16,83.58Z"/><path class="cls-23" d="M504.08,93.69a10.45,10.45,0,0,1-1.23,6.3c-.54.89-3.79,4.2-4.43,6.3"/><path class="cls-9" d="M524.74,73.84c3.9-3.88,4.52-11.24,2.75-16.22-2-5.6-10-9.79-15.48-6.29C501.23,58.22,512.17,86.32,524.74,73.84Z"/><path class="cls-9" d="M517.3,73.15l.21,12s-.45,2.66,4.23,2.83c6.42.23,6.42-4.38,6.42-4.38l-3.71-12.34"/><path class="cls-8" d="M522.16,46a3.65,3.65,0,0,0-4.1-.09,26.85,26.85,0,0,1-2.3,1.71,13.94,13.94,0,0,1-2,.5,11.62,11.62,0,0,0-7.37,6.19c-1.32,3-.9,7.84,1.57,10a14.86,14.86,0,0,1,1.81-7.58c.65-1,1.67-2,2.87-1.9s2.09,1.6,3.06,2.55c1.48,1.43,3.6,1.73,5.55,2,2.21.33,3.91.71,5,2.88a14.23,14.23,0,0,1,1,3,21,21,0,0,1,.68,3.69,8.94,8.94,0,0,0,.24,2.31,5.14,5.14,0,0,0,3.46,2.87c1.14.38,3,.74,3.75-.55a12.77,12.77,0,0,0,1.31-3.78,17,17,0,0,0-2.77-11.65c-2.38-3.79-5.77-6.33-8.83-9.48A19.05,19.05,0,0,0,522.16,46Z"/><path class="cls-9" d="M525.17,64.48a2.55,2.55,0,0,1,1.85-2c3.05-.46,2.59,4.09,1.41,5.69-.69.94-2.46,2.16-3.26-.43"/><path class="cls-9" d="M557.52,157.74l-1.43,3.07s-5.42,1.28-6,2.24c-.91,1.5-2.27,3.59-2.27,4.77s.12,6.39,1.6,6.39c.93,0,3.11-4.24,3.56-4.84,1.06-1.4,5.34-2.42,5.34-6.1l2.63-5.53"/><path class="cls-12" d="M528.16,83.42s12.64-3.22,22.51,3c7.67,4.84,27.41,28.93,27.42,42.73,0,9.3-18.47,32.34-18.47,32.34l-3.07-2.19s1.79-18.11,7.16-28.09c-4-4-19.4-16.25-23.27-20.13"/><path class="cls-23" d="M538.43,109.82c2.76,2.45,10,8.3,10,8.3"/><path class="cls-2" d="M165.92,62.08l-15.27-12.3s6.86-25.35-2.22-34.2c-4.84-4.71-11-7.93-17.26-10.32C117.12-.07,100.34-1.28,87.83,7,78.59,13.15,73,23.65,70.46,34.45c-2.21,9.5-2,20.3,3.92,28a30.51,30.51,0,0,0,10.2,8.13c12.08,6.33,44,8.72,57.89-.57,3.84-2.57,3.5-6,5.11-11.49Z"/><text class="cls-24" transform="translate(83.95 45.77)"><tspan class="cls-25">У</tspan><tspan x="15.2" y="0">п</tspan><tspan class="cls-26" x="30.2" y="0">с</tspan><tspan class="cls-27" x="42.54" y="0">с!</tspan></text></g></g></g></g></svg>