<svg xmlns="http://www.w3.org/2000/svg" viewBox="0 0 151.62 16.06"><defs><style>.cls-1{fill:#008dff;}.cls-2{fill:#00356a;}</style></defs><g id="Слой_2" data-name="Слой 2"><g id="_1_экран" data-name="1 экран"><g id="лого"><path class="cls-1" d="M36.55.44H32.06L25.23,6.28V.44h-3.4V16h3.4v-5.6L27.51,8.5,32.73,16h4.09L30,6.34Z"/><path class="cls-1" d="M47.44,5.7,43.16.44H38.82l6.81,8.14V16H49V8.58l7-8.14H51.66L47.44,5.7"/><path class="cls-2" d="M63.37,9.15h5.45c.93,0,2.28.32,2.28,1.85s-1.26,1.74-2.28,1.74H63.37Zm5.23-3H63.37V3.1H68.6a1.63,1.63,0,0,1,1.75,1.48A1.67,1.67,0,0,1,68.6,6.18Zm3.87.88A3.53,3.53,0,0,0,73.55,4.3a3.53,3.53,0,0,0-1-2.59C71.42.6,69.75.44,68.11.44H60V16h9.11a5.43,5.43,0,0,0,4.14-1.57,5,5,0,0,0,1.32-3.56,4.65,4.65,0,0,0-.59-2.36,3.67,3.67,0,0,0-1.47-1.41"/><path class="cls-2" d="M91.32,8a4.51,4.51,0,1,1-9,0,4.51,4.51,0,1,1,9,0ZM86.8,0a7.8,7.8,0,0,0-7.92,8A7.94,7.94,0,1,0,94.75,8a7.82,7.82,0,0,0-8-8"/><path class="cls-2" d="M107,.44h-2.47L97,16h3.7l4.94-10.54L110.88,16h3.69L107.05.55Z"/><path class="cls-2" d="M128.37,5.17a1.53,1.53,0,0,1-1.75,1.6h-5.17v-3h5.17C127.15,3.72,128.37,3.93,128.37,5.17Zm3.43,0a4.76,4.76,0,0,0-1.27-3.5A5,5,0,0,0,126.78.44h-8.73V16h3.4V9.91h3.9L128.79,16h3.77L129,9.63c2.6-.89,2.85-3.63,2.85-4.42"/><path class="cls-2" d="M148.22,8.2c0,2.81-1.64,4.35-4.6,4.35h-3.31V3.86h3.31C146.45,3.86,148.22,5.52,148.22,8.2ZM143.62.44H136.9V16h6.72c4.78,0,8-3.1,8-7.73s-3.29-7.79-8-7.79"/><path class="cls-1" d="M14.92,3.86,17.13.44H5.78A4.7,4.7,0,0,0,1.14,5.18,4.69,4.69,0,0,0,5.78,9.91h5.57a1.31,1.31,0,0,1,1.41,1.32,1.34,1.34,0,0,1-1.41,1.32H2.21L0,16H11.35a4.73,4.73,0,0,0,0-9.46H5.64a1.32,1.32,0,1,1,0-2.64h9.28"/></g></g></g></svg>