<svg xmlns="http://www.w3.org/2000/svg" xmlns:xlink="http://www.w3.org/1999/xlink" viewBox="0 0 21.86 21.86"><defs><style>.cls-1{fill:none;}.cls-2{clip-path:url(#clip-path);}.cls-3{fill:#fff;}</style><clipPath id="clip-path" transform="translate(-0.57 -0.57)"><rect class="cls-1" width="23" height="23"/></clipPath></defs><g id="Слой_2" data-name="Слой 2"><g id="панель_слева" data-name="панель слева"><g class="cls-2"><path class="cls-3" d="M20.68,14.92a12.44,12.44,0,0,1-3.9-.62,1.78,1.78,0,0,0-1.73.36l-2.46,1.86a13.58,13.58,0,0,1-6.11-6.11L8.28,8a1.77,1.77,0,0,0,.44-1.79,12.27,12.27,0,0,1-.63-3.91A1.75,1.75,0,0,0,6.34.57h-4A1.76,1.76,0,0,0,.57,2.32,20.13,20.13,0,0,0,20.68,22.43a1.76,1.76,0,0,0,1.75-1.75v-4A1.76,1.76,0,0,0,20.68,14.92Z" transform="translate(-0.57 -0.57)"/></g></g></g></svg>