<svg xmlns="http://www.w3.org/2000/svg" xmlns:xlink="http://www.w3.org/1999/xlink" viewBox="0 0 21.1 23.01"><defs><style>.cls-1{fill:none;}.cls-2{clip-path:url(#clip-path);}.cls-3{fill:#fff;}</style><clipPath id="clip-path" transform="translate(-0.95 0.01)"><rect class="cls-1" width="23" height="23"/></clipPath></defs><g id="Слой_2" data-name="Слой 2"><g id="панель_слева" data-name="панель слева"><g class="cls-2"><path class="cls-3" d="M12.5,10.18V8.67a1,1,0,1,0-1.91,0v1.91a1,1,0,0,0,.28.68l1,1a1,1,0,0,0,1.35,0,.94.94,0,0,0,0-1.35Z" transform="translate(-0.95 0.01)"/><path class="cls-3" d="M19,3.15c-.06-.07-.13-.13-.19-.19A10.51,10.51,0,1,0,4.14,18L7.9,21.52A5.22,5.22,0,0,0,11.54,23a5.16,5.16,0,0,0,3.62-1.46L19,18A10.5,10.5,0,0,0,19,3.15ZM11.54,17.27a6.69,6.69,0,1,1,6.69-6.69A6.69,6.69,0,0,1,11.54,17.27Z" transform="translate(-0.95 0.01)"/></g></g></g></svg>