<svg xmlns="http://www.w3.org/2000/svg" xmlns:xlink="http://www.w3.org/1999/xlink" viewBox="0 0 29.88 34.86"><defs><style>.cls-1{fill:none;}.cls-2{clip-path:url(#clip-path);}.cls-3{fill:#999;}</style><clipPath id="clip-path" transform="translate(-2.61 0.04)"><rect class="cls-1" width="35" height="35"/></clipPath></defs><g id="Слой_2" data-name="Слой 2"><g id="_2_экран" data-name="2 экран"><g id="соотрутствие"><g class="cls-2"><path class="cls-3" d="M29.43,8,24.22,2.94a10.49,10.49,0,0,0-7.39-3H10.08A7.38,7.38,0,0,0,2.61,7.22V27.56a7.38,7.38,0,0,0,7.47,7.26H25a7.38,7.38,0,0,0,7.48-7.26V15.19A10,10,0,0,0,29.43,8Zm-2.11,2.05a7.57,7.57,0,0,1,1.17,1.53H22a1.48,1.48,0,0,1-1.5-1.45V3.86A7.64,7.64,0,0,1,22.11,5Zm2.19,17.51A4.43,4.43,0,0,1,25,31.92H10.08A4.43,4.43,0,0,1,5.6,27.56V7.22a4.42,4.42,0,0,1,4.48-4.36h6.75c.24,0,.48.05.72.07v7.2A4.42,4.42,0,0,0,22,14.48h7.4c0,.24.07.47.07.71Z" transform="translate(-2.61 0.04)"/></g></g></g></g></svg>