<svg xmlns="http://www.w3.org/2000/svg" xmlns:xlink="http://www.w3.org/1999/xlink" viewBox="0 0 23.04 16.09"><defs><style>.cls-1{fill:none;}.cls-2{clip-path:url(#clip-path);}.cls-3{fill:#fff;}</style><clipPath id="clip-path" transform="translate(0.02 -3.45)"><rect class="cls-1" width="23" height="23"/></clipPath></defs><g id="Слой_2" data-name="Слой 2"><g id="панель_слева" data-name="панель слева"><g class="cls-2"><path class="cls-3" d="M22.59,3.88a1.52,1.52,0,0,0-2-.08l-.24.12V4L7.88,16.49a.37.37,0,0,1-.49,0L2.5,11.61a1.5,1.5,0,0,0-2.09,0A1.47,1.47,0,0,0,.25,13.5v.15l.23.11,4.81,4.82a3.31,3.31,0,0,0,4.68,0L22.59,6a1.48,1.48,0,0,0,0-2.09Z" transform="translate(0.02 -3.45)"/></g></g></g></svg>